<svg xmlns="http://www.w3.org/2000/svg" _ngcontent-ng-c234682031="" id="canvas"
  appElementRef="canvas" viewBox="0 0 100 100">
  <rect name="top left position pattern" stroke-width="1" stroke="#ff000000" fill="#000000ff"
    x="1.0" y="1.0" width="20.0" height="20.0" rx="0.0" ry="0.0" />
  <rect name="rect" stroke-width="1" stroke="#ff000000" fill="#ffffffff" x="6.0" y="6.0"
    width="10.0" height="10.0" rx="0.0" ry="0.0" />
  <rect name="top right position pattern" stroke-width="1" stroke="#ff000000" fill="#000000ff"
    x="79.0" y="1.0" width="20.0" height="20.0" rx="0.0" ry="0.0" />
  <rect name="rect" stroke-width="1" stroke="#ff000000" fill="#ffffffff" x="84.0" y="6.0"
    width="10.0" height="10.0" rx="0.0" ry="0.0" />
  <rect name="bottom left position patten" stroke-width="1" stroke="#ff000000" fill="#000000ff"
    x="1.0" y="79.0" width="20.0" height="20.0" rx="0.0" ry="0.0" />
  <rect name="rect" stroke-width="1" stroke="#ff000000" fill="#ffffffff" x="6.0" y="84.0"
    width="10.0" height="10.0" rx="0.0" ry="0.0" />
  <line name="timing pattern left 1" stroke-width="5" stroke="#000000ff" fill="#000000ff" x1="18.0"
    y1="28.0" x2="18.0" y2="46.0" />
  <line name="timing patten left 2" stroke-width="5" stroke="#000000ff" fill="#000000ff" x1="18.0"
    y1="55.0" x2="18.0" y2="73.0" />
  <line name="middle line" stroke-width="5" stroke="#000000ff" fill="#000000ff" x1="50.0" y1="25.0"
    x2="50.0" y2="75.0" />
  <line name="timing patten top 1" stroke-width="5" stroke="#000000ff" fill="#000000ff" x1="29.0"
    y1="19.0" x2="47.0" y2="19.0" />
  <line name="timing patten top 2" stroke-width="5" stroke="#000000ff" fill="#000000ff" x1="53.0"
    y1="19.0" x2="72.0" y2="19.0" />
  <line name="bottom line" stroke-width="5" stroke="#000000ff" fill="#000000ff" x1="27.0" y1="82.0"
    x2="52.0" y2="82.0" />
  <line name="right line" stroke-width="5" stroke="#000000ff" fill="#000000ff" x1="82.0" y1="25.0"
    x2="82.0" y2="84.0" />
  <text name="text Qr code" stroke-width="0.5" stroke="#000000ff" fill="#36fe4eff" x="46.0" y="97.0"
    font-size="13">QR code</text>
  <rect name="left diagonal 1" stroke-width="3.5" stroke="#00000000" fill="#000000ff" x="26.0"
    y="28.0" width="5.0" height="5.0" rx="0.0" ry="0.0" />
  <rect name="left diagonal 2" stroke-width="1" stroke="#00000000" fill="#000000ff" x="33.0"
    y="36.0" width="5.0" height="5.0" rx="0.0" ry="0.0" />
  <rect name="left diagonal 3" stroke-width="3.5" stroke="#00000000" fill="#000000ff" x="40.0"
    y="43.0" width="5.0" height="5.0" rx="0.0" ry="0.0" />
  <rect name="right diagonal 1" stroke-width="3.5" stroke="#00000000" fill="#000000ff" x="69.0"
    y="28.0" width="5.0" height="5.0" rx="0.0" ry="0.0" />
  <rect name="right diagonal 2" stroke-width="1" stroke="#00000000" fill="#000000ff" x="62.0"
    y="36.0" width="5.0" height="5.0" rx="0.0" ry="0.0" />
  <rect name="right diagonal 3" stroke-width="3.5" stroke="#00000000" fill="#000000ff" x="55.0"
    y="43.0" width="5.0" height="5.0" rx="0.0" ry="0.0" />
</svg>